<svg xmlns="http://www.w3.org/2000/svg" viewBox="0 0 16 16" shape-rendering="crispEdges">
  <!-- Blue circle background (pixel approximation) -->
  <rect x="5" y="1" width="6" height="1" fill="#000080"/>
  <rect x="3" y="2" width="10" height="2" fill="#000080"/>
  <rect x="2" y="4" width="12" height="8" fill="#000080"/>
  <rect x="3" y="12" width="10" height="2" fill="#000080"/>
  <rect x="5" y="14" width="6" height="1" fill="#000080"/>
  <!-- Highlight ring (lighter top-left arc) -->
  <rect x="5" y="1" width="6" height="1" fill="#5080ff"/>
  <rect x="3" y="2" width="2" height="1" fill="#5080ff"/>
  <rect x="11" y="2" width="2" height="1" fill="#5080ff"/>
  <rect x="2" y="4" width="1" height="4" fill="#5080ff"/>
  <!-- Shadow (darker bottom-right) -->
  <rect x="13" y="8" width="1" height="4" fill="#000040"/>
  <rect x="11" y="13" width="2" height="1" fill="#000040"/>
  <!-- White "i" -->
  <rect x="7" y="4" width="2" height="2" fill="#ffffff"/>
  <rect x="7" y="7" width="2" height="6" fill="#ffffff"/>
  <rect x="6" y="7" width="1" height="6" fill="#ffffff"/>
  <rect x="9" y="7" width="1" height="6" fill="#ffffff"/>
  <rect x="6" y="12" width="4" height="1" fill="#ffffff"/>
</svg>
